<svg xmlns="http://www.w3.org/2000/svg" version="1.1" xmlns:xlink="http://www.w3.org/1999/xlink" xmlns:svgjs="http://svgjs.com/svgjs" width="500" height="500" preserveAspectRatio="none" viewBox="0 0 500 500"><g mask="url(&quot;#SvgjsMask1029&quot;)" fill="none"><rect width="500" height="500" x="0" y="0" fill="rgba(47, 49, 51, 1)"></rect><path d="M0 -27L23.38 -13.5L23.38 13.5L0 27L-23.38 13.5L-23.38 -13.5zM23.38 13.5L46.77 27L46.77 54L23.38 67.5L0 54L0 27zM0 54L23.38 67.5L23.38 94.5L0 108L-23.38 94.5L-23.38 67.5zM23.38 94.5L46.77 108L46.77 135L23.38 148.5L0 135L0 108zM0 135L23.38 148.5L23.38 175.5L0 189L-23.38 175.5L-23.38 148.5zM23.38 175.5L46.77 189L46.77 216L23.38 229.5L0 216L0 189zM0 216L23.38 229.5L23.38 256.5L0 270L-23.38 256.5L-23.38 229.5zM23.38 256.5L46.77 270L46.77 297L23.38 310.5L0 297L0 270zM0 297L23.38 310.5L23.38 337.5L0 351L-23.38 337.5L-23.38 310.5zM23.38 337.5L46.77 351L46.77 378L23.38 391.5L0 378L0 351zM0 378L23.38 391.5L23.38 418.5L0 432L-23.38 418.5L-23.38 391.5zM23.38 418.5L46.77 432L46.77 459L23.38 472.5L0 459L0 432zM0 459L23.38 472.5L23.38 499.5L0 513L-23.38 499.5L-23.38 472.5zM46.77 -27L70.15 -13.5L70.15 13.5L46.77 27L23.38 13.5L23.38 -13.5zM70.15 13.5L93.53 27L93.53 54L70.15 67.5L46.77 54L46.77 27zM46.77 54L70.15 67.5L70.15 94.5L46.77 108L23.38 94.5L23.38 67.5zM70.15 94.5L93.53 108L93.53 135L70.15 148.5L46.77 135L46.77 108zM46.77 135L70.15 148.5L70.15 175.5L46.77 189L23.38 175.5L23.38 148.5zM70.15 175.5L93.53 189L93.53 216L70.15 229.5L46.77 216L46.77 189zM46.77 216L70.15 229.5L70.15 256.5L46.77 270L23.38 256.5L23.38 229.5zM70.15 256.5L93.53 270L93.53 297L70.15 310.5L46.77 297L46.77 270zM46.77 297L70.15 310.5L70.15 337.5L46.77 351L23.38 337.5L23.38 310.5zM70.15 337.5L93.53 351L93.53 378L70.15 391.5L46.77 378L46.77 351zM46.77 378L70.15 391.5L70.15 418.5L46.77 432L23.38 418.5L23.38 391.5zM70.15 418.5L93.53 432L93.53 459L70.15 472.5L46.77 459L46.77 432zM46.77 459L70.15 472.5L70.15 499.5L46.77 513L23.38 499.5L23.38 472.5zM93.53 -27L116.92 -13.5L116.92 13.5L93.53 27L70.15 13.5L70.15 -13.5zM116.92 13.5L140.3 27L140.3 54L116.92 67.5L93.53 54L93.53 27zM93.53 54L116.92 67.5L116.92 94.5L93.53 108L70.15 94.5L70.15 67.5zM116.92 94.5L140.3 108L140.3 135L116.92 148.5L93.53 135L93.53 108zM93.53 135L116.92 148.5L116.92 175.5L93.53 189L70.15 175.5L70.15 148.5zM116.92 175.5L140.3 189L140.3 216L116.92 229.5L93.53 216L93.53 189zM93.53 216L116.92 229.5L116.92 256.5L93.53 270L70.15 256.5L70.15 229.5zM116.92 256.5L140.3 270L140.3 297L116.92 310.5L93.53 297L93.53 270zM93.53 297L116.92 310.5L116.92 337.5L93.53 351L70.15 337.5L70.15 310.5zM116.92 337.5L140.3 351L140.3 378L116.92 391.5L93.53 378L93.53 351zM93.53 378L116.92 391.5L116.92 418.5L93.53 432L70.15 418.5L70.15 391.5zM116.92 418.5L140.3 432L140.3 459L116.92 472.5L93.53 459L93.53 432zM93.53 459L116.92 472.5L116.92 499.5L93.53 513L70.15 499.5L70.15 472.5zM140.3 -27L163.68 -13.5L163.68 13.5L140.3 27L116.92 13.5L116.92 -13.5zM163.68 13.5L187.07 27L187.07 54L163.68 67.5L140.3 54L140.3 27zM140.3 54L163.68 67.5L163.68 94.5L140.3 108L116.92 94.5L116.92 67.5zM163.68 94.5L187.07 108L187.07 135L163.68 148.5L140.3 135L140.3 108zM140.3 135L163.68 148.5L163.68 175.5L140.3 189L116.92 175.5L116.92 148.5zM163.68 175.5L187.07 189L187.07 216L163.68 229.5L140.3 216L140.3 189zM140.3 216L163.68 229.5L163.68 256.5L140.3 270L116.92 256.5L116.92 229.5zM163.68 256.5L187.07 270L187.07 297L163.68 310.5L140.3 297L140.3 270zM140.3 297L163.68 310.5L163.68 337.5L140.3 351L116.92 337.5L116.92 310.5zM163.68 337.5L187.07 351L187.07 378L163.68 391.5L140.3 378L140.3 351zM140.3 378L163.68 391.5L163.68 418.5L140.3 432L116.92 418.5L116.92 391.5zM163.68 418.5L187.07 432L187.07 459L163.68 472.5L140.3 459L140.3 432zM140.3 459L163.68 472.5L163.68 499.5L140.3 513L116.92 499.5L116.92 472.5zM187.07 -27L210.45 -13.5L210.45 13.5L187.07 27L163.68 13.5L163.68 -13.5zM210.45 13.5L233.83 27L233.83 54L210.45 67.5L187.07 54L187.07 27zM187.07 54L210.45 67.5L210.45 94.5L187.07 108L163.68 94.5L163.68 67.5zM210.45 94.5L233.83 108L233.83 135L210.45 148.5L187.07 135L187.07 108zM187.07 135L210.45 148.5L210.45 175.5L187.07 189L163.68 175.5L163.68 148.5zM210.45 175.5L233.83 189L233.83 216L210.45 229.5L187.07 216L187.07 189zM187.07 216L210.45 229.5L210.45 256.5L187.07 270L163.68 256.5L163.68 229.5zM210.45 256.5L233.83 270L233.83 297L210.45 310.5L187.07 297L187.07 270zM187.07 297L210.45 310.5L210.45 337.5L187.07 351L163.68 337.5L163.68 310.5zM210.45 337.5L233.83 351L233.83 378L210.45 391.5L187.07 378L187.07 351zM187.07 378L210.45 391.5L210.45 418.5L187.07 432L163.68 418.5L163.68 391.5zM210.45 418.5L233.83 432L233.83 459L210.45 472.5L187.07 459L187.07 432zM187.07 459L210.45 472.5L210.45 499.5L187.07 513L163.68 499.5L163.68 472.5zM233.83 -27L257.22 -13.5L257.22 13.5L233.83 27L210.45 13.5L210.45 -13.5zM257.22 13.5L280.6 27L280.6 54L257.22 67.5L233.83 54L233.83 27zM233.83 54L257.22 67.5L257.22 94.5L233.83 108L210.45 94.5L210.45 67.5zM257.22 94.5L280.6 108L280.6 135L257.22 148.5L233.83 135L233.83 108zM233.83 135L257.22 148.5L257.22 175.5L233.83 189L210.45 175.5L210.45 148.5zM257.22 175.5L280.6 189L280.6 216L257.22 229.5L233.83 216L233.83 189zM233.83 216L257.22 229.5L257.22 256.5L233.83 270L210.45 256.5L210.45 229.5zM257.22 256.5L280.6 270L280.6 297L257.22 310.5L233.83 297L233.83 270zM233.83 297L257.22 310.5L257.22 337.5L233.83 351L210.45 337.5L210.45 310.5zM257.22 337.5L280.6 351L280.6 378L257.22 391.5L233.83 378L233.83 351zM233.83 378L257.22 391.5L257.22 418.5L233.83 432L210.45 418.5L210.45 391.5zM257.22 418.5L280.6 432L280.6 459L257.22 472.5L233.83 459L233.83 432zM233.83 459L257.22 472.5L257.22 499.5L233.83 513L210.45 499.5L210.45 472.5zM280.6 -27L303.98 -13.5L303.98 13.5L280.6 27L257.22 13.5L257.22 -13.5zM303.98 13.5L327.37 27L327.37 54L303.98 67.5L280.6 54L280.6 27zM280.6 54L303.98 67.5L303.98 94.5L280.6 108L257.22 94.5L257.22 67.5zM303.98 94.5L327.37 108L327.37 135L303.98 148.5L280.6 135L280.6 108zM280.6 135L303.98 148.5L303.98 175.5L280.6 189L257.22 175.5L257.22 148.5zM303.98 175.5L327.37 189L327.37 216L303.98 229.5L280.6 216L280.6 189zM280.6 216L303.98 229.5L303.98 256.5L280.6 270L257.22 256.5L257.22 229.5zM303.98 256.5L327.37 270L327.37 297L303.98 310.5L280.6 297L280.6 270zM280.6 297L303.98 310.5L303.98 337.5L280.6 351L257.22 337.5L257.22 310.5zM303.98 337.5L327.37 351L327.37 378L303.98 391.5L280.6 378L280.6 351zM280.6 378L303.98 391.5L303.98 418.5L280.6 432L257.22 418.5L257.22 391.5zM303.98 418.5L327.37 432L327.37 459L303.98 472.5L280.6 459L280.6 432zM280.6 459L303.98 472.5L303.98 499.5L280.6 513L257.22 499.5L257.22 472.5zM327.37 -27L350.75 -13.5L350.75 13.5L327.37 27L303.98 13.5L303.98 -13.5zM350.75 13.5L374.13 27L374.13 54L350.75 67.5L327.37 54L327.37 27zM327.37 54L350.75 67.5L350.75 94.5L327.37 108L303.98 94.5L303.98 67.5zM350.75 94.5L374.13 108L374.13 135L350.75 148.5L327.37 135L327.37 108zM327.37 135L350.75 148.5L350.75 175.5L327.37 189L303.98 175.5L303.98 148.5zM350.75 175.5L374.13 189L374.13 216L350.75 229.5L327.37 216L327.37 189zM327.37 216L350.75 229.5L350.75 256.5L327.37 270L303.98 256.5L303.98 229.5zM350.75 256.5L374.13 270L374.13 297L350.75 310.5L327.37 297L327.37 270zM327.37 297L350.75 310.5L350.75 337.5L327.37 351L303.98 337.5L303.98 310.5zM350.75 337.5L374.13 351L374.13 378L350.75 391.5L327.37 378L327.37 351zM327.37 378L350.75 391.5L350.75 418.5L327.37 432L303.98 418.5L303.98 391.5zM350.75 418.5L374.13 432L374.13 459L350.75 472.5L327.37 459L327.37 432zM327.37 459L350.75 472.5L350.75 499.5L327.37 513L303.98 499.5L303.98 472.5zM374.13 -27L397.52 -13.5L397.52 13.5L374.13 27L350.75 13.5L350.75 -13.5zM397.52 13.5L420.9 27L420.9 54L397.52 67.5L374.13 54L374.13 27zM374.13 54L397.52 67.5L397.52 94.5L374.13 108L350.75 94.5L350.75 67.5zM397.52 94.5L420.9 108L420.9 135L397.52 148.5L374.13 135L374.13 108zM374.13 135L397.52 148.5L397.52 175.5L374.13 189L350.75 175.5L350.75 148.5zM397.52 175.5L420.9 189L420.9 216L397.52 229.5L374.13 216L374.13 189zM374.13 216L397.52 229.5L397.52 256.5L374.13 270L350.75 256.5L350.75 229.5zM397.52 256.5L420.9 270L420.9 297L397.52 310.5L374.13 297L374.13 270zM374.13 297L397.52 310.5L397.52 337.5L374.13 351L350.75 337.5L350.75 310.5zM397.52 337.5L420.9 351L420.9 378L397.52 391.5L374.13 378L374.13 351zM374.13 378L397.52 391.5L397.52 418.5L374.13 432L350.75 418.5L350.75 391.5zM397.52 418.5L420.9 432L420.9 459L397.52 472.5L374.13 459L374.13 432zM374.13 459L397.52 472.5L397.52 499.5L374.13 513L350.75 499.5L350.75 472.5zM420.9 -27L444.28 -13.5L444.28 13.5L420.9 27L397.52 13.5L397.52 -13.5zM444.28 13.5L467.67 27L467.67 54L444.28 67.5L420.9 54L420.9 27zM420.9 54L444.28 67.5L444.28 94.5L420.9 108L397.52 94.5L397.52 67.5zM444.28 94.5L467.67 108L467.67 135L444.28 148.5L420.9 135L420.9 108zM420.9 135L444.28 148.5L444.28 175.5L420.9 189L397.52 175.5L397.52 148.5zM444.28 175.5L467.67 189L467.67 216L444.28 229.5L420.9 216L420.9 189zM420.9 216L444.28 229.5L444.28 256.5L420.9 270L397.52 256.5L397.52 229.5zM444.28 256.5L467.67 270L467.67 297L444.28 310.5L420.9 297L420.9 270zM420.9 297L444.28 310.5L444.28 337.5L420.9 351L397.52 337.5L397.52 310.5zM444.28 337.5L467.67 351L467.67 378L444.28 391.5L420.9 378L420.9 351zM420.9 378L444.28 391.5L444.28 418.5L420.9 432L397.52 418.5L397.52 391.5zM444.28 418.5L467.67 432L467.67 459L444.28 472.5L420.9 459L420.9 432zM420.9 459L444.28 472.5L444.28 499.5L420.9 513L397.52 499.5L397.52 472.5zM467.67 -27L491.05 -13.5L491.05 13.5L467.67 27L444.28 13.5L444.28 -13.5zM491.05 13.5L514.43 27L514.43 54L491.05 67.5L467.67 54L467.67 27zM467.67 54L491.05 67.5L491.05 94.5L467.67 108L444.28 94.5L444.28 67.5zM491.05 94.5L514.43 108L514.43 135L491.05 148.5L467.67 135L467.67 108zM467.67 135L491.05 148.5L491.05 175.5L467.67 189L444.28 175.5L444.28 148.5zM491.05 175.5L514.43 189L514.43 216L491.05 229.5L467.67 216L467.67 189zM467.67 216L491.05 229.5L491.05 256.5L467.67 270L444.28 256.5L444.28 229.5zM491.05 256.5L514.43 270L514.43 297L491.05 310.5L467.67 297L467.67 270zM467.67 297L491.05 310.5L491.05 337.5L467.67 351L444.28 337.5L444.28 310.5zM491.05 337.5L514.43 351L514.43 378L491.05 391.5L467.67 378L467.67 351zM467.67 378L491.05 391.5L491.05 418.5L467.67 432L444.28 418.5L444.28 391.5zM491.05 418.5L514.43 432L514.43 459L491.05 472.5L467.67 459L467.67 432zM467.67 459L491.05 472.5L491.05 499.5L467.67 513L444.28 499.5L444.28 472.5z" stroke="rgba(57, 59, 61, 1)" stroke-width="2"></path></g><defs><mask id="SvgjsMask1029"><rect width="500" height="500" fill="#ffffff"></rect></mask></defs></svg>